# xmcd CD database file
#
# Track frame offsets:
#	150
#	14790
#	27930
#	41010
#	60630
#	79425
#	95270
#	110645
#	124980
#	136880
#	149300
#	159650
#	174545
#	189820
#	199270
#	212890
#	225630
#	239925
#	260000
#	272110
#	288055
#	308005
#
# Disc length: 4286 seconds
#
# Revision: 3
# Processed by: cddbd v1.5.1PL2 Copyright (c) Steve Scherf et al.
# Submitted via: CDex 1.51
#
DISCID=4d10bc16
DTITLE=Various Artist - The Best Country Album in the World Ever
DYEAR=1900
DGENRE=Country
TTITLE0=Glen Campbell - Rhinestone Cowboy
TTITLE1=Dr Hook - When You're in Love with a Beautiful Woman
TTITLE2=Lynn Anderson - Rose Garden
TTITLE3=Kenny Rogers - Coward of the County
TTITLE4=Jimmy Buffett - Margaritaville
TTITLE5=Alabama - Give Me One More Shot
TTITLE6=Billy Ray Cyrus - Achy Breaky Heart
TTITLE7=Charlie Pride - I Don't Know Why I Love You
TTITLE8=Dolly Parton - Jolene
TTITLE9=Bobby Bare - 500 Miles
TTITLE10=Johnny Russell - Jambalaya
TTITLE11=Cat Stevens - Morning Has Broken
TTITLE12=Tony Orlando and Dawn - Tie a Yellow Ribbon
TTITLE13=The Searchers - Love Potion No. 9
TTITLE14=John Denver - Annie's Song
TTITLE15=Alexandra Paul - Let a Few Go By
TTITLE16=John Denver - Take Me Home Country Road
TTITLE17=Shania Twain - You Win My Love
TTITLE18=Merle Haggard - Okie From Muskogee
TTITLE19=Randy Travis - Forever And Ever
TTITLE20=Hal Ketchum - Past The Point Of Rescue
TTITLE21=The Carpenters - Top Of The World
EXTD=
EXTT0=
EXTT1=
EXTT2=
EXTT3=
EXTT4=
EXTT5=
EXTT6=
EXTT7=
EXTT8=
EXTT9=
EXTT10=
EXTT11=
EXTT12=
EXTT13=
EXTT14=
EXTT15=
EXTT16=
EXTT17=
EXTT18=
EXTT19=
EXTT20=
EXTT21=
PLAYORDER=
